<svg width="32" height="32" viewBox="0 0 24 24" fill="none" xmlns="http://www.w3.org/2000/svg">
  <path
    d="M20 2H4C2.9 2 2 2.9 2 4V22L6 18H20C21.1 18 22 17.1 22 16V4C22 2.9 21.1 2 20 2Z"
    fill="#c2652a"
    fill-opacity="0.15"
    stroke="#c2652a"
    stroke-width="2"
    stroke-linecap="round"
    stroke-linejoin="round"
  />
  <path
    d="M7 7H13M7 11H17M7 15H11"
    stroke="#c2652a"
    stroke-width="2"
    stroke-linecap="round"
  />
  <path
    d="M18 3C18 4 17 5 16 5C17 5 18 6 18 7C18 6 19 5 20 5C19 5 18 4 18 3Z"
    fill="#c2652a"
  />
</svg>
